<svg width="32" height="32" viewBox="0 0 32 32" fill="none" xmlns="http://www.w3.org/2000/svg">
<path d="M9.48443 29.311C8.79865 29.311 8.21309 29.0669 7.72776 28.5787C7.24265 28.0902 7.00009 27.5032 7.00009 26.8177C7.00009 26.1319 7.24431 25.5464 7.73276 25.061C8.22098 24.5759 8.80798 24.3334 9.49376 24.3334C10.1795 24.3334 10.765 24.5776 11.2501 25.066C11.7352 25.5542 11.9778 26.1412 11.9778 26.827C11.9778 27.5128 11.7336 28.0982 11.2454 28.5834C10.757 29.0685 10.17 29.311 9.48443 29.311ZM22.8178 29.311C22.132 29.311 21.5464 29.0669 21.0611 28.5787C20.576 28.0902 20.3334 27.5032 20.3334 26.8177C20.3334 26.1319 20.5776 25.5464 21.0661 25.061C21.5543 24.5759 22.1413 24.3334 22.8271 24.3334C23.5129 24.3334 24.0983 24.5776 24.5834 25.066C25.0685 25.5542 25.3111 26.1412 25.3111 26.827C25.3111 27.5128 25.067 28.0982 24.5788 28.5834C24.0903 29.0685 23.5033 29.311 22.8178 29.311ZM7.95576 7.53335L11.4668 14.8224H20.9778L24.9778 7.53335H7.95576ZM6.86676 5.31102H26.5128C27.0234 5.31102 27.412 5.54258 27.6784 6.00569C27.9446 6.46858 27.9482 6.93335 27.6891 7.40002L23.1111 15.6444C22.8666 16.0741 22.5459 16.4149 22.1488 16.6667C21.7516 16.9185 21.3169 17.0444 20.8444 17.0444H10.8001L9.06676 20.2444H24.2001C24.515 20.2444 24.7789 20.3512 24.9918 20.565C25.2046 20.7788 25.3111 21.0436 25.3111 21.3594C25.3111 21.6754 25.2046 21.9389 24.9918 22.15C24.7789 22.3611 24.515 22.4667 24.2001 22.4667H9.26676C8.3112 22.4667 7.6112 22.113 7.16676 21.4057C6.72231 20.6981 6.71865 19.9407 7.15576 19.1334L9.17776 15.4224L4.20009 4.88902H2.68909C2.3742 4.88902 2.11031 4.78213 1.89743 4.56835C1.68431 4.35458 1.57776 4.0898 1.57776 3.77402C1.57776 3.45802 1.68431 3.19446 1.89743 2.98335C2.11031 2.77224 2.3742 2.66669 2.68909 2.66669H4.92243C5.13709 2.66669 5.33487 2.7218 5.51576 2.83202C5.69643 2.94202 5.83198 3.09802 5.92243 3.30002L6.86676 5.31102Z" fill="#191B1F"/>
</svg>
