<svg width="14" height="14" viewBox="0 0 14 14" fill="none" xmlns="http://www.w3.org/2000/svg">
<path fill-rule="evenodd" clip-rule="evenodd" d="M0.294866 1.70713C-0.0956688 1.31661 -0.0956869 0.683448 0.294827 0.292913C0.68534 -0.0976223 1.31851 -0.0976399 1.70904 0.292874L7.00229 5.58583L12.2955 0.292874C12.6861 -0.0976399 13.3192 -0.0976223 13.7098 0.292913C14.1003 0.683448 14.1002 1.31661 13.7097 1.70713L8.41654 7L13.7097 12.2929C14.1002 12.6834 14.1003 13.3166 13.7097 13.7071C13.3192 14.0976 12.6861 14.0976 12.2955 13.7071L7.00229 8.41418L1.70905 13.7071C1.31851 14.0976 0.685345 14.0976 0.294832 13.7071C-0.0956819 13.3166 -0.0956643 12.6834 0.294871 12.2929L5.58804 7L0.294866 1.70713Z" fill="#191B1F"/>
</svg>
