<svg width="34" height="32" viewBox="0 0 34 32" fill="none" xmlns="http://www.w3.org/2000/svg">
<path d="M16.9412 28.6985C15.0118 28.6985 13.1883 28.3651 11.4706 27.6985C9.75296 27.0318 8.25296 26.1217 6.97061 24.9683C5.68825 23.8149 4.67649 22.4657 3.93531 20.9207C3.19414 19.3757 2.82355 17.7355 2.82355 16C2.82355 14.2434 3.19414 12.5979 3.93531 11.0635C4.67649 9.52915 5.68825 8.18523 6.97061 7.03179C8.25296 5.87836 9.75296 4.9683 11.4706 4.30164C13.1883 3.63497 15.0118 3.30164 16.9412 3.30164C18.8941 3.30164 20.7235 3.63497 22.4294 4.30164C24.1353 4.9683 25.6294 5.87836 26.9118 7.03179C28.1941 8.18523 29.2059 9.52915 29.9471 11.0635C30.6883 12.5979 31.0588 14.2434 31.0588 16C31.0588 17.7355 30.6883 19.3757 29.9471 20.9207C29.2059 22.4657 28.1941 23.8149 26.9118 24.9683C25.6294 26.1217 24.1353 27.0318 22.4294 27.6985C20.7235 28.3651 18.8941 28.6985 16.9412 28.6985ZM16.9412 26.0953C17.553 25.3334 18.0824 24.5397 18.5294 23.7143C18.9765 22.8889 19.3412 22.0106 19.6235 21.0794H14.2588C14.5412 22.0106 14.9059 22.8889 15.353 23.7143C15.8 24.5397 16.3294 25.3334 16.9412 26.0953ZM13.2706 25.5874C12.8471 24.8889 12.4765 24.1641 12.1588 23.4127C11.8412 22.6614 11.5765 21.8836 11.3647 21.0794H7.20002C7.88237 22.1376 8.73531 23.0583 9.75884 23.8413C10.7824 24.6244 11.953 25.2064 13.2706 25.5874ZM20.6118 25.5874C21.9294 25.2064 23.1 24.6244 24.1235 23.8413C25.1471 23.0583 26 22.1376 26.6824 21.0794H22.5177C22.3059 21.8836 22.0412 22.6614 21.7235 23.4127C21.4059 24.1641 21.0353 24.8889 20.6118 25.5874ZM6.00002 18.5397H10.8C10.7294 18.1165 10.6765 17.6985 10.6412 17.2858C10.6059 16.8731 10.5883 16.4445 10.5883 16C10.5883 15.5556 10.6059 15.127 10.6412 14.7143C10.6765 14.3016 10.7294 13.8836 10.8 13.4604H6.00002C5.88237 13.8836 5.79414 14.3016 5.73531 14.7143C5.67649 15.127 5.64708 15.5556 5.64708 16C5.64708 16.4445 5.67649 16.8731 5.73531 17.2858C5.79414 17.6985 5.88237 18.1165 6.00002 18.5397ZM13.6235 18.5397H20.2588C20.3294 18.1165 20.3824 17.6985 20.4177 17.2858C20.453 16.8731 20.4706 16.4445 20.4706 16C20.4706 15.5556 20.453 15.127 20.4177 14.7143C20.3824 14.3016 20.3294 13.8836 20.2588 13.4604H13.6235C13.553 13.8836 13.5 14.3016 13.4647 14.7143C13.4294 15.127 13.4118 15.5556 13.4118 16C13.4118 16.4445 13.4294 16.8731 13.4647 17.2858C13.5 17.6985 13.553 18.1165 13.6235 18.5397ZM23.0824 18.5397H27.8824C28 18.1165 28.0883 17.6985 28.1471 17.2858C28.2059 16.8731 28.2353 16.4445 28.2353 16C28.2353 15.5556 28.2059 15.127 28.1471 14.7143C28.0883 14.3016 28 13.8836 27.8824 13.4604H23.0824C23.153 13.8836 23.2059 14.3016 23.2412 14.7143C23.2765 15.127 23.2941 15.5556 23.2941 16C23.2941 16.4445 23.2765 16.8731 23.2412 17.2858C23.2059 17.6985 23.153 18.1165 23.0824 18.5397ZM22.5177 10.9207H26.6824C26 9.86248 25.1471 8.94185 24.1235 8.15878C23.1 7.37571 21.9294 6.7937 20.6118 6.41275C21.0353 7.11116 21.4059 7.83603 21.7235 8.58735C22.0412 9.33867 22.3059 10.1165 22.5177 10.9207ZM14.2588 10.9207H19.6235C19.3412 9.98947 18.9765 9.11116 18.5294 8.28576C18.0824 7.46037 17.553 6.66672 16.9412 5.90481C16.3294 6.66672 15.8 7.46037 15.353 8.28576C14.9059 9.11116 14.5412 9.98947 14.2588 10.9207ZM7.20002 10.9207H11.3647C11.5765 10.1165 11.8412 9.33867 12.1588 8.58735C12.4765 7.83603 12.8471 7.11116 13.2706 6.41275C11.953 6.7937 10.7824 7.37571 9.75884 8.15878C8.73531 8.94185 7.88237 9.86248 7.20002 10.9207Z" fill="#191B1F"/>
</svg>
