<svg width="33" height="33" viewBox="0 0 33 33" fill="none" xmlns="http://www.w3.org/2000/svg">
<path fill-rule="evenodd" clip-rule="evenodd" d="M25.0598 16.2321C25.0598 15.4921 24.9985 14.9521 24.8659 14.3921H16.2434V17.7321H21.3046C21.2026 18.5621 20.6516 19.8121 19.4271 20.6521L19.4099 20.7639L22.1362 22.8337L22.3251 22.8522C24.0597 21.2822 25.0598 18.9721 25.0598 16.2321Z" fill="#4285F4"/>
<path fill-rule="evenodd" clip-rule="evenodd" d="M16.2435 25.032C18.7231 25.032 20.8047 24.232 22.3252 22.852L19.4272 20.6519C18.6516 21.182 17.6108 21.552 16.2435 21.552C13.8149 21.552 11.7537 19.982 11.0189 17.812L10.9112 17.821L8.07639 19.971L8.03931 20.072C9.5495 23.012 12.6516 25.032 16.2435 25.032Z" fill="#34A853"/>
<path fill-rule="evenodd" clip-rule="evenodd" d="M11.0189 17.8122C10.8251 17.2522 10.7128 16.6521 10.7128 16.0321C10.7128 15.4121 10.825 14.8121 11.0087 14.2521L11.0036 14.1328L8.13326 11.9482L8.03937 11.992C7.41693 13.2121 7.05981 14.5821 7.05981 16.0321C7.05981 17.4821 7.41699 18.852 8.03937 20.0721L11.019 17.8121" fill="#FBBC04"/>
<path fill-rule="evenodd" clip-rule="evenodd" d="M16.2435 10.5122C17.968 10.5122 19.1312 11.2422 19.7945 11.8523L22.3864 9.37223C20.7946 7.92221 18.7231 7.03223 16.2435 7.03223C12.6516 7.03223 9.54955 9.05222 8.03931 11.9922L11.0087 14.2523C11.7537 12.0823 13.8149 10.5122 16.2435 10.5122" fill="#EA4335"/>
</svg>
