<svg width="33" height="33" viewBox="0 0 33 33" fill="none" xmlns="http://www.w3.org/2000/svg">
<g clip-path="url(#clip0_102_3401)">
<path fill-rule="evenodd" clip-rule="evenodd" d="M7.28638 0.0322266H24.8333C26.7482 0.0377489 28.5831 0.804438 29.9371 2.1648C31.2912 3.52517 32.0543 5.36863 32.0598 7.29247V24.7746C32.0536 26.698 31.2902 28.5408 29.9362 29.9006C28.5822 31.2604 26.7477 32.0267 24.8333 32.0322H7.28638C5.37191 32.0267 3.53739 31.2604 2.18341 29.9006C0.829434 28.5408 0.0659978 26.698 0.0598145 24.7746V7.29247C0.0653112 5.36863 0.828444 3.52517 2.1825 2.1648C3.53655 0.804438 5.37146 0.0377489 7.28638 0.0322266Z" fill="#0152D0"/>
<path fill-rule="evenodd" clip-rule="evenodd" d="M13.821 13.4829H16.6616V14.964H16.7018C17.0987 14.2457 18.0645 13.4829 19.5077 13.4829C22.5056 13.4829 23.0598 15.3713 23.0598 17.828V23.023H20.0985V18.4057C20.0985 17.3485 20.0765 15.9878 18.5584 15.9878C17.0402 15.9878 16.7805 17.1375 16.7805 18.3298V23.0322H13.821V13.4829ZM12.14 10.5911C12.14 10.8994 12.0497 11.2008 11.8805 11.4571C11.7112 11.7135 11.4707 11.9133 11.1893 12.0313C10.9079 12.1492 10.5982 12.1801 10.2995 12.12C10.0007 12.0598 9.72629 11.9114 9.5109 11.6933C9.29551 11.4753 9.14883 11.1976 9.08941 10.8952C9.02998 10.5928 9.06048 10.2794 9.17705 9.99453C9.29362 9.70969 9.49102 9.46623 9.74429 9.29494C9.99756 9.12365 10.2953 9.03223 10.5999 9.03223C11.0082 9.03272 11.3997 9.19711 11.6884 9.48934C11.9771 9.78158 12.1396 10.1778 12.14 10.5911ZM9.06347 13.4829H12.14V23.023H9.06347V13.4829Z" fill="white"/>
</g>
<defs>
<clipPath id="clip0_102_3401">
<rect x="0.0598145" y="0.0322266" width="32" height="32" rx="16" fill="white"/>
</clipPath>
</defs>
</svg>
