<svg width="158" height="48" viewBox="0 0 158 48" fill="none" xmlns="http://www.w3.org/2000/svg">
<path fill-rule="evenodd" clip-rule="evenodd" d="M0 9.3093L11.656 31.357L26.9563 38.0759L42.5342 31.1194L53.6285 9.32334L37.5306 18.3434L26.9563 0L16.3832 18.3434L0 9.3093ZM16.6371 43.1546L13.2927 36.3441L26.6799 43.1546L40.5768 36.3441L36.9238 43.6347L26.6799 48L16.6371 43.1546ZM13.1001 34.4329L26.4409 40.8011L26.6711 40.911L26.9045 40.8082L40.7846 34.6932L40.3364 33.6758L26.6897 39.6879L13.5791 33.4296L13.1001 34.4329Z" fill="#FE7F0A"/>
<path d="M66.6445 34.5V14.816H69.3325L76.5285 26.352L83.7245 14.816H86.4125V34.5H82.6325V22.768L77.8165 30.468H75.2405L70.4525 22.74V34.5H66.6445ZM95.6976 34.78C92.0016 34.78 89.2016 31.756 89.2016 27.752C89.2016 23.748 92.0016 20.696 95.6696 20.696C97.2936 20.696 98.6656 21.284 99.6176 22.264V20.976H103.258V34.5H99.6176V33.212C98.6656 34.192 97.2936 34.78 95.6976 34.78ZM96.3696 31.392C98.4136 31.392 99.8136 29.88 99.8136 27.724C99.8136 25.596 98.4136 24.084 96.3696 24.084C94.3536 24.084 92.9536 25.596 92.9536 27.724C92.9536 29.88 94.3536 31.392 96.3696 31.392ZM112.271 34.78C108.687 34.78 106.139 32.316 106.139 28.816V20.976H109.835V28.732C109.835 30.412 110.731 31.392 112.271 31.392C113.811 31.392 114.707 30.44 114.707 28.732V20.976H118.375V28.816C118.375 32.372 115.883 34.78 112.271 34.78ZM121.296 34.5V14.256H124.964V27.192L129.892 20.976H134.12L128.8 27.416L134.4 34.5H129.92L124.964 27.92V34.5H121.296ZM141.116 34.78C137.42 34.78 134.62 31.756 134.62 27.752C134.62 23.748 137.42 20.696 141.088 20.696C142.712 20.696 144.084 21.284 145.036 22.264V20.976H148.676V34.5H145.036V33.212C144.084 34.192 142.712 34.78 141.116 34.78ZM141.788 31.392C143.832 31.392 145.232 29.88 145.232 27.724C145.232 25.596 143.832 24.084 141.788 24.084C139.772 24.084 138.372 25.596 138.372 27.724C138.372 29.88 139.772 31.392 141.788 31.392ZM151.921 34.5V14.256H155.589V34.5H151.921Z" fill="#191B1F"/>
</svg>
