<svg width="32" height="32" viewBox="0 0 32 32" fill="none" xmlns="http://www.w3.org/2000/svg">
<path d="M16 29.3334C15.2666 29.3334 14.6389 29.0722 14.1166 28.55C13.5944 28.0278 13.3333 27.4 13.3333 26.6667H18.6666C18.6666 27.4 18.4055 28.0278 17.8833 28.55C17.3611 29.0722 16.7333 29.3334 16 29.3334ZM6.44431 25.3334C6.12965 25.3334 5.86576 25.2265 5.65265 25.0127C5.43976 24.7991 5.33331 24.5344 5.33331 24.2184C5.33331 23.9024 5.43976 23.6388 5.65265 23.4277C5.86576 23.2166 6.12965 23.111 6.44431 23.111H7.99998V13.2444C7.99998 11.3852 8.55187 9.72413 9.65565 8.26102C10.7592 6.79813 12.2073 5.86669 14 5.46669V4.66669C14 4.11113 14.1944 3.63891 14.5833 3.25002C14.9722 2.86113 15.4444 2.66669 16 2.66669C16.5246 2.66669 16.9706 2.83891 17.338 3.18335C17.7053 3.5278 17.9185 3.94813 17.9776 4.44435V4.58902C17.6963 5.07769 17.4852 5.5908 17.3443 6.12835C17.2036 6.66591 17.1333 7.21569 17.1333 7.77769C17.1333 9.4148 17.6648 10.8315 18.7276 12.0277C19.7908 13.2241 21.1038 13.926 22.6666 14.1334C22.8889 14.1778 23.1111 14.2075 23.3333 14.2224C23.5555 14.237 23.7778 14.2296 24 14.2V23.111H25.5556C25.8703 23.111 26.1342 23.2179 26.3473 23.4317C26.5602 23.6455 26.6666 23.9102 26.6666 24.226C26.6666 24.542 26.5602 24.8056 26.3473 25.0167C26.1342 25.2278 25.8703 25.3334 25.5556 25.3334H6.44431ZM23.575 11.5557C22.525 11.5557 21.6333 11.1881 20.9 10.453C20.1666 9.71791 19.8 8.82524 19.8 7.77502C19.8 6.72502 20.1675 5.83335 20.9026 5.10002C21.6378 4.36669 22.5303 4.00002 23.5803 4.00002C24.6305 4.00002 25.5223 4.36758 26.2556 5.10269C26.989 5.8378 27.3556 6.73035 27.3556 7.78035C27.3556 8.83058 26.9881 9.72235 26.253 10.4557C25.5179 11.189 24.6252 11.5557 23.575 11.5557Z" fill="#191B1F"/>
<circle cx="23.5957" cy="7.7074" r="4" fill="#FF0000"/>
</svg>
