<svg width="35" height="32" viewBox="0 0 35 32" fill="none" xmlns="http://www.w3.org/2000/svg">
<path d="M17.7386 14.7285C16.5621 14.7285 15.5621 14.3581 14.7386 13.6174C13.9151 12.8766 13.5033 11.9772 13.5033 10.919C13.5033 9.86078 13.9151 8.9613 14.7386 8.22056C15.5621 7.47982 16.5621 7.10945 17.7386 7.10945C18.9151 7.10945 19.9151 7.47982 20.7386 8.22056C21.5621 8.9613 21.9739 9.86078 21.9739 10.919C21.9739 11.9772 21.5621 12.8766 20.7386 13.6174C19.9151 14.3581 18.9151 14.7285 17.7386 14.7285ZM17.7386 12.1888C18.1386 12.1888 18.4739 12.0671 18.7445 11.8237C19.0151 11.5804 19.1504 11.2788 19.1504 10.919C19.1504 10.5592 19.0151 10.2576 18.7445 10.0142C18.4739 9.77083 18.1386 9.64914 17.7386 9.64914C17.3386 9.64914 17.0033 9.77083 16.7327 10.0142C16.4621 10.2576 16.3268 10.5592 16.3268 10.919C16.3268 11.2788 16.4621 11.5804 16.7327 11.8237C17.0033 12.0671 17.3386 12.1888 17.7386 12.1888ZM9.26802 19.9348C9.26802 19.4904 9.39155 19.0724 9.63861 18.6809C9.88567 18.2893 10.221 17.9772 10.6445 17.7444C11.7033 17.1941 12.821 16.7655 13.9974 16.4587C15.1739 16.1518 16.421 15.9983 17.7386 15.9983C19.0563 15.9983 20.3033 16.1518 21.4798 16.4587C22.6563 16.7655 23.7739 17.1941 24.8327 17.7444C25.2563 17.9772 25.5916 18.2893 25.8386 18.6809C26.0857 19.0724 26.2092 19.4904 26.2092 19.9348C26.2092 20.6121 25.9504 21.1835 25.4327 21.6491C24.9151 22.1147 24.2798 22.3475 23.5268 22.3475H11.9504C11.1974 22.3475 10.5621 22.1147 10.0445 21.6491C9.52684 21.1835 9.26802 20.6121 9.26802 19.9348ZM17.7386 18.538C16.7739 18.538 15.8327 18.6438 14.9151 18.8555C13.9974 19.0671 13.1268 19.3846 12.3033 19.8079H23.1739C22.3504 19.3846 21.4798 19.0671 20.5621 18.8555C19.6445 18.6438 18.7033 18.538 17.7386 18.538ZM24.4798 4.85548C24.1268 4.68617 23.8739 4.43749 23.721 4.10945C23.568 3.78141 23.5739 3.44808 23.7386 3.10945C23.9033 2.77083 24.1621 2.53802 24.5151 2.41104C24.868 2.28406 25.221 2.30522 25.5739 2.47453C27.1033 3.19411 28.468 4.09887 29.668 5.18882C30.868 6.27876 31.8798 7.51157 32.7033 8.88723C32.8916 9.20469 32.9268 9.53273 32.8092 9.87136C32.6916 10.21 32.4445 10.4534 32.068 10.6015C31.6916 10.7497 31.321 10.755 30.9563 10.6174C30.5916 10.4798 30.3151 10.2523 30.1268 9.93485C29.468 8.85548 28.6621 7.88723 27.7092 7.03009C26.7563 6.17294 25.6798 5.44808 24.4798 4.85548ZM10.9974 4.85548C9.79743 5.44808 8.72096 6.17294 7.76802 7.03009C6.81508 7.88723 6.0092 8.85548 5.35037 9.93485C5.16214 10.2523 4.88567 10.4798 4.52096 10.6174C4.15626 10.755 3.78567 10.7497 3.4092 10.6015C3.03273 10.4534 2.78567 10.21 2.66802 9.87136C2.55037 9.53273 2.58567 9.20469 2.7739 8.88723C3.59743 7.53273 4.6092 6.31051 5.8092 5.22056C7.0092 4.13062 8.3739 3.22585 9.90332 2.50628C10.2563 2.33697 10.6151 2.31051 10.9798 2.42691C11.3445 2.54331 11.6092 2.77083 11.7739 3.10945C11.9386 3.44808 11.9386 3.78141 11.7739 4.10945C11.6092 4.43749 11.3504 4.68617 10.9974 4.85548ZM5.35037 22.0618C6.0092 23.1412 6.81508 24.1095 7.76802 24.9666C8.72096 25.8237 9.79743 26.5486 10.9974 27.1412C11.3504 27.3105 11.6092 27.5592 11.7739 27.8872C11.9386 28.2153 11.9386 28.5486 11.7739 28.8872C11.6092 29.2259 11.3386 29.4534 10.9621 29.5698C10.5857 29.6862 10.2092 29.6597 9.83273 29.4904C8.32684 28.7708 6.96802 27.8608 5.75626 26.7602C4.54449 25.6597 3.53861 24.4216 2.73861 23.046C2.55037 22.7285 2.52096 22.4057 2.65037 22.0777C2.77979 21.7497 3.03273 21.5116 3.4092 21.3634C3.78567 21.2153 4.15626 21.2153 4.52096 21.3634C4.88567 21.5116 5.16214 21.7444 5.35037 22.0618ZM30.1268 22.0618C30.3151 21.7444 30.5916 21.5116 30.9563 21.3634C31.321 21.2153 31.6916 21.2153 32.068 21.3634C32.4445 21.5116 32.7033 21.7497 32.8445 22.0777C32.9857 22.4057 32.9621 22.7285 32.7739 23.046C31.9739 24.4216 30.968 25.6491 29.7563 26.7285C28.5445 27.8079 27.1739 28.7179 25.6445 29.4587C25.2916 29.628 24.9268 29.6597 24.5504 29.5539C24.1739 29.4481 23.9033 29.2259 23.7386 28.8872C23.5739 28.5486 23.568 28.2153 23.721 27.8872C23.8739 27.5592 24.1268 27.3105 24.4798 27.1412C25.6798 26.5486 26.7563 25.8237 27.7092 24.9666C28.6621 24.1095 29.468 23.1412 30.1268 22.0618ZM17.7386 19.8079H23.1739H12.3033H17.7386Z" fill="#191B1F"/>
</svg>
