<svg width="81" height="80" viewBox="0 0 81 80" fill="none" xmlns="http://www.w3.org/2000/svg">
<path opacity="0.3" d="M80.5 40C80.5 62.0914 62.5914 80 40.5 80C18.4086 80 0.5 62.0914 0.5 40C0.5 17.9086 18.4086 0 40.5 0C62.5914 0 80.5 17.9086 80.5 40ZM11.4071 40C11.4071 56.0675 24.4325 69.0929 40.5 69.0929C56.5675 69.0929 69.5929 56.0675 69.5929 40C69.5929 23.9325 56.5675 10.9071 40.5 10.9071C24.4325 10.9071 11.4071 23.9325 11.4071 40Z" fill="#EDEDED"/>
<circle cx="40.5" cy="40" r="29" fill="#EDEDED"/>
<g clip-path="url(#clip0_100_2970)">
<path d="M33.8333 44.9998C33.8333 43.1589 32.3409 41.6665 30.5 41.6665C28.659 41.6665 27.1666 43.1589 27.1666 44.9998V48.3332C27.1666 50.1741 28.659 51.6665 30.5 51.6665C32.3409 51.6665 33.8333 50.1741 33.8333 48.3332V44.9998Z" stroke="#191B1F" stroke-width="2" stroke-linecap="round" stroke-linejoin="round"/>
<path d="M53.8333 44.9998C53.8333 43.1589 52.3409 41.6665 50.5 41.6665C48.659 41.6665 47.1666 43.1589 47.1666 44.9998V48.3332C47.1666 50.1741 48.659 51.6665 50.5 51.6665C52.3409 51.6665 53.8333 50.1741 53.8333 48.3332V44.9998Z" stroke="#191B1F" stroke-width="2" stroke-linecap="round" stroke-linejoin="round"/>
<path d="M27.1666 44.9998V39.9998C27.1666 36.4636 28.5714 33.0722 31.0719 30.5717C33.5724 28.0713 36.9637 26.6665 40.5 26.6665C44.0362 26.6665 47.4276 28.0713 49.928 30.5717C52.4285 33.0722 53.8333 36.4636 53.8333 39.9998V44.9998" stroke="#191B1F" stroke-width="2" stroke-linecap="round" stroke-linejoin="round"/>
<path d="M50.5 51.6665C50.5 52.9926 49.4464 54.2644 47.5711 55.202C45.6957 56.1397 43.1522 56.6665 40.5 56.6665" stroke="#191B1F" stroke-width="2" stroke-linecap="round" stroke-linejoin="round"/>
</g>
<defs>
<clipPath id="clip0_100_2970">
<rect width="40" height="40" fill="white" transform="translate(20.5 20)"/>
</clipPath>
</defs>
</svg>
