<svg width="81" height="80" viewBox="0 0 81 80" fill="none" xmlns="http://www.w3.org/2000/svg">
<path opacity="0.3" d="M80.5 40C80.5 62.0914 62.5914 80 40.5 80C18.4086 80 0.5 62.0914 0.5 40C0.5 17.9086 18.4086 0 40.5 0C62.5914 0 80.5 17.9086 80.5 40ZM11.4071 40C11.4071 56.0675 24.4325 69.0929 40.5 69.0929C56.5675 69.0929 69.5929 56.0675 69.5929 40C69.5929 23.9325 56.5675 10.9071 40.5 10.9071C24.4325 10.9071 11.4071 23.9325 11.4071 40Z" fill="#EDEDED"/>
<circle cx="40.5" cy="40" r="29" fill="#EDEDED"/>
<path d="M31 53.3332C29.6111 53.3332 28.4305 52.8471 27.4583 51.8748C26.4861 50.9026 26 49.7221 26 48.3332H24.3333C23.8611 48.3332 23.4652 48.1734 23.1458 47.854C22.8263 47.5346 22.6666 47.1387 22.6666 46.6665V29.9998C22.6666 29.0832 22.993 28.2984 23.6458 27.6457C24.2986 26.9929 25.0833 26.6665 26 26.6665H46C46.9166 26.6665 47.7013 26.9929 48.3541 27.6457C49.0069 28.2984 49.3333 29.0832 49.3333 29.9998V33.3332H52.6666C53.1944 33.3332 53.6944 33.4512 54.1666 33.6873C54.6388 33.9234 55.0277 34.2498 55.3333 34.6665L59 39.5415C59.1111 39.6804 59.1944 39.8332 59.25 39.9998C59.3055 40.1665 59.3333 40.3471 59.3333 40.5415V46.6665C59.3333 47.1387 59.1736 47.5346 58.8541 47.854C58.5347 48.1734 58.1388 48.3332 57.6666 48.3332H56C56 49.7221 55.5138 50.9026 54.5416 51.8748C53.5694 52.8471 52.3888 53.3332 51 53.3332C49.6111 53.3332 48.4305 52.8471 47.4583 51.8748C46.4861 50.9026 46 49.7221 46 48.3332H36C36 49.7221 35.5138 50.9026 34.5416 51.8748C33.5694 52.8471 32.3888 53.3332 31 53.3332ZM31 49.9998C31.4722 49.9998 31.868 49.8401 32.1875 49.5207C32.5069 49.2012 32.6666 48.8054 32.6666 48.3332C32.6666 47.8609 32.5069 47.4651 32.1875 47.1457C31.868 46.8262 31.4722 46.6665 31 46.6665C30.5277 46.6665 30.1319 46.8262 29.8125 47.1457C29.493 47.4651 29.3333 47.8609 29.3333 48.3332C29.3333 48.8054 29.493 49.2012 29.8125 49.5207C30.1319 49.8401 30.5277 49.9998 31 49.9998ZM26 44.9998H27.3333C27.8055 44.4998 28.3472 44.0971 28.9583 43.7915C29.5694 43.4859 30.25 43.3332 31 43.3332C31.75 43.3332 32.4305 43.4859 33.0416 43.7915C33.6527 44.0971 34.1944 44.4998 34.6666 44.9998H46V29.9998H26V44.9998ZM51 49.9998C51.4722 49.9998 51.868 49.8401 52.1875 49.5207C52.5069 49.2012 52.6666 48.8054 52.6666 48.3332C52.6666 47.8609 52.5069 47.4651 52.1875 47.1457C51.868 46.8262 51.4722 46.6665 51 46.6665C50.5277 46.6665 50.1319 46.8262 49.8125 47.1457C49.493 47.4651 49.3333 47.8609 49.3333 48.3332C49.3333 48.8054 49.493 49.2012 49.8125 49.5207C50.1319 49.8401 50.5277 49.9998 51 49.9998ZM49.3333 41.6665H56.4166L52.6666 36.6665H49.3333V41.6665Z" fill="#191B1F"/>
</svg>
