<svg width="80" height="80" viewBox="0 0 80 80" fill="none" xmlns="http://www.w3.org/2000/svg">
<path opacity="0.3" d="M80 40C80 62.0914 62.0914 80 40 80C17.9086 80 0 62.0914 0 40C0 17.9086 17.9086 0 40 0C62.0914 0 80 17.9086 80 40ZM10.9071 40C10.9071 56.0675 23.9325 69.0929 40 69.0929C56.0675 69.0929 69.0929 56.0675 69.0929 40C69.0929 23.9325 56.0675 10.9071 40 10.9071C23.9325 10.9071 10.9071 23.9325 10.9071 40Z" fill="#EDEDED"/>
<circle cx="40" cy="40" r="29" fill="#EDEDED"/>
<path d="M40.5 53.1668C43.1945 52.3335 45.4445 50.6877 47.25 48.2293C49.0556 45.771 50.1111 43.0279 50.4167 40.0002H40.5V26.8752L30.5 30.6252V39.2502C30.5 39.4446 30.5278 39.6946 30.5834 40.0002H40.5V53.1668ZM40.5 56.5002C40.3056 56.5002 40.125 56.4863 39.9584 56.4585C39.7917 56.4307 39.625 56.389 39.4584 56.3335C35.7084 55.0835 32.7222 52.771 30.5 49.396C28.2778 46.021 27.1667 42.3891 27.1667 38.5002V30.6252C27.1667 29.9307 27.3681 29.3057 27.7709 28.7502C28.1736 28.1946 28.6945 27.7918 29.3334 27.5418L39.3334 23.7918C39.7222 23.6529 40.1111 23.5835 40.5 23.5835C40.8889 23.5835 41.2778 23.6529 41.6667 23.7918L51.6667 27.5418C52.3056 27.7918 52.8264 28.1946 53.2292 28.7502C53.632 29.3057 53.8334 29.9307 53.8334 30.6252V38.5002C53.8334 42.3891 52.7222 46.021 50.5 49.396C48.2778 52.771 45.2917 55.0835 41.5417 56.3335C41.375 56.389 41.2084 56.4307 41.0417 56.4585C40.875 56.4863 40.6945 56.5002 40.5 56.5002Z" fill="#191B1F"/>
</svg>
